<?xml version="1.0" encoding="utf-8"?>
<!-- Generator: Adobe Illustrator 15.0.0, SVG Export Plug-In . SVG Version: 6.00 Build 0)  -->
<!DOCTYPE svg PUBLIC "-//W3C//DTD SVG 1.1//EN" "http://www.w3.org/Graphics/SVG/1.1/DTD/svg11.dtd">
<svg version="1.1" id="Layer_1" xmlns="http://www.w3.org/2000/svg" xmlns:xlink="http://www.w3.org/1999/xlink" x="0px" y="0px"
	 width="643px" height="810px" viewBox="0 0 643 810" enable-background="new 0 0 643 810" xml:space="preserve">
<g opacity="0.3">
	<g>
		<polygon fill="#FFFFFF" stroke="#FFCE00" stroke-width="5" stroke-miterlimit="10" points="432.754,329.863 390.579,329.863 
			390.579,401.4 445.557,401.4 445.557,342.667 		"/>
		<polyline fill="#FFFFFF" stroke="#FFCE00" stroke-width="5" stroke-miterlimit="10" points="445.557,342.667 432.001,342.667 
			432.001,329.863 		"/>
	</g>
	<rect x="395.099" y="339.277" fill="#FFCE00" width="28.291" height="4.896"/>
	<rect x="396.228" y="353.094" fill="#FFCE00" width="38.785" height="2.729"/>
	<rect x="396.228" y="359.788" fill="#FFCE00" width="38.785" height="2.729"/>
	<rect x="396.228" y="366.566" fill="#FFCE00" width="39.325" height="2.729"/>
	<rect x="396.228" y="379.162" fill="#FFCE00" width="38.785" height="2.729"/>
	<rect x="396.228" y="385.939" fill="#FFCE00" width="39.325" height="2.73"/>
</g>
<g>
	<circle opacity="0.25" fill="#301F15" enable-background="new    " cx="462.293" cy="255.373" r="4.16"/>
	<circle opacity="0.25" fill="#301F15" enable-background="new    " cx="462.293" cy="271.542" r="4.16"/>
	<circle opacity="0.25" fill="#301F15" enable-background="new    " cx="462.293" cy="287.711" r="4.16"/>
	<circle opacity="0.25" fill="#301F15" enable-background="new    " cx="462.293" cy="303.881" r="4.16"/>
	<polygon opacity="0.25" fill="#301F15" enable-background="new    " points="475.984,316.41 462.176,329.704 448.369,316.41 	"/>
	<circle opacity="0.25" fill="#301F15" enable-background="new    " cx="462.293" cy="237.711" r="4.16"/>
</g>
<g>
	<g>
		<path fill="#301F15" d="M464.617,363.943c0,2.019,1.637,3.654,3.657,3.654c2.02,0,3.655-1.637,3.655-3.654
			c0-2.021-1.636-3.657-3.655-3.657C466.254,360.286,464.617,361.922,464.617,363.943L464.617,363.943z M453.911,372.486
			c0,1.341,1.146,2.429,2.559,2.429h11.701c1.412,0,2.56-1.088,2.56-2.429c0-1.344-1.147-2.43-2.56-2.43H456.47
			C455.056,370.057,453.911,371.143,453.911,372.486L453.911,372.486z M452.754,363.943c0,2.019,1.638,3.654,3.658,3.654
			c2.02,0,3.657-1.637,3.657-3.654c0-2.021-1.638-3.657-3.657-3.657C454.39,360.286,452.754,361.922,452.754,363.943
			L452.754,363.943z M452.74,383.676v6.812c0,0.705,0.57,1.277,1.275,1.277h5.051c0.156-1.627,1.531-2.9,3.199-2.9
			c0.441,0,0.862,0.09,1.244,0.25l3.271-3.77c0.56-0.646,1.523,0.192,0.967,0.838l-3.174,3.657c0.494,0.509,0.822,1.181,0.894,1.925
			h5.127c0.705,0,1.277-0.572,1.277-1.277v-6.812c0-0.705-0.572-1.279-1.277-1.279h-16.578
			C453.312,382.395,452.74,382.971,452.74,383.676L452.74,383.676z M459.968,350.719c0,1.068,0.696,1.975,1.658,2.287v-0.121
			c0-0.447,0.35-0.674,0.674-0.674s0.674,0.227,0.674,0.674v0.168c1.041-0.266,1.811-1.211,1.811-2.334
			c0-1.33-1.077-2.406-2.408-2.406C461.046,348.311,459.968,349.387,459.968,350.719L459.968,350.719z M440.555,406.932
			l-1.172,0.248l-1.307-6.146c-0.289-1.363-1.63-2.234-2.993-1.943l-0.448,0.097c-1.363,0.289-2.232,1.629-1.941,2.989l1.306,6.148
			l-1.174,0.25l-2.646-2.938l-2.645-2.938l1.222-3.761l1.222-3.76l0.8-0.17c-0.237-1.195-0.229-2.348-0.099-3.416
			c0.84-6.836,7.276-10.988,14.226-11.878c0.467-0.614,1.206-1.012,2.036-1.012h9.934v-1.272h-3.999
			c-1.312,0-2.375-1.062-2.375-2.375v-4.027h-1.413c-0.706,0-1.277-0.574-1.277-1.279v-5.172c0-0.705,0.572-1.279,1.277-1.279h1.412
			v-5.072c0-1.311,1.063-2.373,2.375-2.373h8.758v-1.453c-1.714-0.348-3.004-1.858-3.004-3.68c0-2.072,1.68-3.752,3.753-3.752
			c2.074,0,3.755,1.68,3.755,3.752c0,1.871-1.367,3.42-3.155,3.707v1.426h8.784c1.312,0,2.377,1.062,2.377,2.373v5.072h1.394
			c0.707,0,1.281,0.572,1.281,1.279v5.172c0,0.707-0.574,1.279-1.281,1.279h-1.396v4.027c0,1.312-1.063,2.375-2.375,2.375h-3.969
			v1.272h9.932c0.9,0,1.693,0.467,2.149,1.174c5.31-0.627,8.375-3.592,8.711-6.33c0.063-0.512,0.056-0.938-0.008-1.307l-0.681,0.145
			l-2.646-2.938l-2.646-2.938l1.22-3.76l1.224-3.761l1.174-0.247l1.308,6.145c0.289,1.363,1.631,2.232,2.994,1.941l0.446-0.095
			c1.365-0.289,2.233-1.631,1.943-2.994l-1.305-6.146l1.172-0.25l2.645,2.938l2.646,2.938l-1.222,3.761l-1.225,3.762l-0.797,0.17
			c0.236,1.191,0.229,2.344,0.098,3.414c-0.854,6.975-7.541,11.154-14.647,11.929v22.914c0,1.412-1.146,2.558-2.558,2.558h-0.491
			v26.668h1.229v6.612h1.395v2.272h-16.627v-2.272h1.464v-6.612h1.588v-26.666h-7.981v26.666h1.229v6.612h1.396v2.272h-16.628
			v-2.272h1.467v-6.612h1.586v-26.666h-0.409c-1.414,0-2.559-1.146-2.559-2.56v-22.903c-4.479,0.93-7.052,3.612-7.356,6.108
			c-0.064,0.514-0.058,0.938,0.008,1.31l0.681-0.146l2.646,2.938l2.646,2.936l-1.22,3.766L440.555,406.932L440.555,406.932z"/>
	</g>
</g>
<rect x="391.473" y="457.762" fill="#FFCE00" width="145.768" height="27.729"/>
<text transform="matrix(1 0 0 1 400.1426 475.3242)" font-family="'Courier-Bold'" font-size="12.9406">ArticleController</text>
<g>
	<g opacity="0.2">
		<g>
			<polygon fill="none" stroke="#000000" stroke-width="6.4677" stroke-miterlimit="10" points="531.622,20.237 441.072,20.237 
				441.072,173.825 559.108,173.825 559.108,47.726 			"/>
			<polyline fill="none" stroke="#000000" stroke-width="6.4677" stroke-miterlimit="10" points="559.108,47.726 530.005,47.726 
				530.005,20.237 			"/>
		</g>
		<rect x="450.775" y="40.45" fill="#301F15" width="60.741" height="10.51"/>
		<rect x="453.199" y="70.112" fill="#301F15" width="83.271" height="5.86"/>
		<rect x="453.199" y="84.485" fill="#301F15" width="83.271" height="5.859"/>
		<rect x="453.199" y="99.038" fill="#301F15" width="84.432" height="5.859"/>
		<rect x="453.199" y="126.081" fill="#301F15" width="83.271" height="5.859"/>
		<rect x="453.199" y="140.632" fill="#301F15" width="84.432" height="5.861"/>
	</g>
	<g>
		<path fill="#301F15" d="M522.694,86.944c-1.586-1.52-3.402-1.603-3.907-1.592H513.4c-1.144-2.964-3.513-3.955-4.941-4.023
			l-6.052-0.002c-1.156-3.342-3.911-4.619-5.54-4.814l-0.137-0.018h-6.187V64.888c0.032-0.634,0-2.621-1.533-4.335
			c-1.437-1.604-3.654-2.419-6.595-2.419c-2.871,0-5.095,0.796-6.61,2.366c-1.759,1.823-1.842,4.006-1.837,4.483V92.95
			c-2.974-3.01-5.768-4.539-8.301-4.539c-6.512,0-7.483,3.781-7.483,6.033c0,1.912,0.818,4.584,0.911,4.883l0.09,0.285
			l18.649,29.807v9.551h38.07l8.94-23.316V92.998C524.849,90.348,524.124,88.312,522.694,86.944z M520.192,114.792l-7.487,19.521
			h-30.214v-6.23l-19.03-30.418c-0.243-0.842-0.617-2.373-0.617-3.221c0-0.66,0.126-0.789,0.167-0.832
			c0.243-0.25,1.084-0.543,2.658-0.543c2.334,0,6.286,4.199,8.221,7.033l0.081-0.055v7.766h4.656v-42.84l-0.002-0.084
			c0-0.007,0.047-0.65,0.534-1.154c0.596-0.619,1.723-0.943,3.259-0.943c1.479,0,2.58,0.296,3.095,0.834
			c0.346,0.359,0.381,0.811,0.386,0.951l-0.011,0.033v27.742h4.658V81.153h5.849c0.371,0.092,1.896,0.651,1.896,3.629v7.57h4.657
			v-6.369h5.228c0.002,0,0.004,0.002,0.007,0.002l0.169-0.002l-0.164,0.002c0.48,0.144,1.219,0.975,1.219,3.308v7.569h4.655v-6.854
			h4.759l0.104-0.002c0.002,0,0.312,0.066,0.555,0.299c0.466,0.444,0.721,1.399,0.721,2.691v21.795L520.192,114.792L520.192,114.792
			z"/>
	</g>
	<rect x="419.067" y="185.757" fill="#FFCE00" width="93.079" height="27.729"/>
	<text transform="matrix(1 0 0 1 428.1104 203.3164)" font-family="'Courier-Bold'" font-size="12.9406">PageSlider</text>
	<path fill="none" stroke="#000000" stroke-width="2" stroke-miterlimit="10" d="M524.557,165.497c0,5.522-4.477,10-10,10h-97.11
		c-5.522,0-10-4.478-10-10v-135c0-5.523,4.478-10,10-10h97.11c5.523,0,10,4.477,10,10V165.497z"/>
	<g>
		<circle fill="#301F15" cx="390.122" cy="95.886" r="4.16"/>
		<circle fill="#301F15" cx="406.291" cy="95.886" r="4.16"/>
		<circle fill="#301F15" cx="422.461" cy="95.886" r="4.16"/>
		<polygon fill="#301F15" points="434.99,82.194 448.284,96.003 434.99,109.81 		"/>
	</g>
	<rect x="418.067" y="31.497" fill="none" stroke="#000000" stroke-width="2" stroke-miterlimit="10" width="95.779" height="130"/>
</g>
<g>
	<polygon fill="#FFFFFF" stroke="#000000" stroke-width="5.0429" stroke-miterlimit="10" points="521.949,788.015 442.496,788.015 
		402.307,720.886 481.76,720.886 	"/>
	<polygon fill="#FFFFFF" stroke="#FFCE00" stroke-width="5" stroke-miterlimit="10" points="531.949,778.015 452.496,778.015 
		412.307,710.886 491.76,710.886 	"/>
	<polygon fill="#FFFFFF" stroke="#000000" stroke-width="5.0429" stroke-miterlimit="10" points="561.949,768.015 482.496,768.015 
		442.307,700.886 521.76,700.886 	"/>
	<circle fill="#FFCE00" cx="398.146" cy="701.307" r="4.16"/>
	<text transform="matrix(1 0 0 1 143.7983 679.2266)" font-family="'Courier'" font-size="12.9406">Next article z-index: -1</text>
	<g>
		<path opacity="0.25" fill="#301F15" enable-background="new    " d="M479.503,726.715c2.298,0,4.838,1.861,5.675,4.16
			c0.836,2.297-0.349,4.16-2.646,4.16s-4.838-1.863-5.674-4.16C476.021,728.576,477.206,726.715,479.503,726.715z"/>
		<path opacity="0.25" fill="#301F15" enable-background="new    " d="M495.673,726.715c2.298,0,4.838,1.861,5.675,4.16
			c0.836,2.297-0.349,4.16-2.646,4.16s-4.838-1.863-5.674-4.16C492.19,728.576,493.376,726.715,495.673,726.715z"/>
		<polygon opacity="0.25" fill="#301F15" enable-background="new    " points="504.733,717.184 523.053,730.992 514.784,744.799 		
			"/>
	</g>
	<polyline fill="none" stroke="#FFCE00" stroke-width="2" stroke-miterlimit="10" points="398.146,701.146 373.402,676.403 
		339.898,676.403 	"/>
	<text transform="matrix(1 0 0 1 113.7983 709.2266)" font-family="'Courier'" font-size="12.9406">Previous article z-index: -2</text>
	<path fill="#301F15" stroke="#000000" stroke-width="2" stroke-miterlimit="10" d="M359.143,705.467l42.246,42.246L359.143,705.467
		z"/>
	
		<line fill="none" stroke="#000000" stroke-width="2" stroke-miterlimit="10" x1="339.898" y1="705.467" x2="359.143" y2="705.467"/>
	<circle fill="#301F15" cx="399.146" cy="745.307" r="4.16"/>
</g>
<circle fill="#301F15" cx="56.565" cy="88.344" r="15.565"/>
<text transform="matrix(1 0 0 1 83.291 92.2285)" font-family="'Courier'" font-size="18">User Swipes Right</text>
<text transform="matrix(1 0 0 1 49.7681 95.2285)" fill="#FFFFFF" font-family="'Courier-Bold'" font-size="23.9859">1</text>
<circle fill="#301F15" cx="55.905" cy="418.344" r="15.565"/>
<text transform="matrix(1 0 0 1 81.6309 413.2285)" font-family="'Courier'" font-size="18">Controller Determines</text>
<text transform="matrix(1 0 0 1 81.6309 434.8281)" font-family="'Courier'" font-size="18">Which Article to Show</text>
<text transform="matrix(1 0 0 1 49.1079 425.2285)" fill="#FFFFFF" font-family="'Courier-Bold'" font-size="23.9859">2</text>
<circle fill="#301F15" cx="55.905" cy="628.344" r="15.565"/>
<text transform="matrix(1 0 0 1 81.6309 621.2285)" font-family="'Courier'" font-size="18">Z-index of Appropriate</text>
<text transform="matrix(1 0 0 1 81.6309 642.8281)" font-family="'Courier'" font-size="18">Article is Set</text>
<text transform="matrix(1 0 0 1 49.1079 635.2285)" fill="#FFFFFF" font-family="'Courier-Bold'" font-size="23.9859">3</text>
<rect x="347" y="259.762" fill="#301F15" width="233" height="27.729"/>
<text transform="matrix(1 0 0 1 358.1426 277.3242)" fill="#FFFFFF" font-family="'Courier-Bold'" font-size="12.9406">PageSlider.DIRECTION_CHANGE</text>
<g>
	<circle opacity="0.25" fill="#301F15" enable-background="new    " cx="458.017" cy="561.589" r="4.16"/>
	<circle opacity="0.25" fill="#301F15" enable-background="new    " cx="458.017" cy="577.758" r="4.16"/>
	<circle opacity="0.25" fill="#301F15" enable-background="new    " cx="458.017" cy="593.927" r="4.16"/>
	<circle opacity="0.25" fill="#301F15" enable-background="new    " cx="458.017" cy="610.097" r="4.16"/>
	<polygon opacity="0.25" fill="#301F15" enable-background="new    " points="471.708,622.626 457.899,635.92 444.093,622.626 	"/>
	<circle opacity="0.25" fill="#301F15" enable-background="new    " cx="458.017" cy="511.589" r="4.16"/>
	<circle opacity="0.25" fill="#301F15" enable-background="new    " cx="458.017" cy="527.758" r="4.16"/>
	<circle opacity="0.25" fill="#301F15" enable-background="new    " cx="458.017" cy="543.927" r="4.16"/>
</g>
<rect x="352" y="548.762" fill="#301F15" width="223" height="27.729"/>
<g opacity="0.2">
	<g>
		<polygon fill="none" stroke="#000000" stroke-width="3.0125" stroke-miterlimit="10" points="519.242,329.863 477.067,329.863 
			477.067,401.4 532.045,401.4 532.045,342.667 		"/>
		<polyline fill="none" stroke="#000000" stroke-width="3.0125" stroke-miterlimit="10" points="532.045,342.667 518.489,342.667 
			518.489,329.863 		"/>
	</g>
	<rect x="481.587" y="339.277" fill="#301F15" width="28.291" height="4.896"/>
	<rect x="482.716" y="353.094" fill="#301F15" width="38.785" height="2.729"/>
	<rect x="482.716" y="359.788" fill="#301F15" width="38.785" height="2.729"/>
	<rect x="482.716" y="366.566" fill="#301F15" width="39.325" height="2.729"/>
	<rect x="482.716" y="379.162" fill="#301F15" width="38.785" height="2.729"/>
	<rect x="482.716" y="385.939" fill="#301F15" width="39.325" height="2.73"/>
</g>
<text transform="matrix(1 0 0 1 357.1426 566.3242)" fill="#FFFFFF" font-family="'Courier-Bold'" font-size="12.9406"> PageSlider.DIRECTION_RIGHT</text>
</svg>
