<?xml version="1.0" encoding="utf-8"?>
<!-- Generator: Adobe Illustrator 15.0.0, SVG Export Plug-In . SVG Version: 6.00 Build 0)  -->
<!DOCTYPE svg PUBLIC "-//W3C//DTD SVG 1.1//EN" "http://www.w3.org/Graphics/SVG/1.1/DTD/svg11.dtd">
<svg version="1.1" id="Layer_1" xmlns="http://www.w3.org/2000/svg" xmlns:xlink="http://www.w3.org/1999/xlink" x="0px" y="0px"
	 width="643px" height="238px" viewBox="0 0 643 238" enable-background="new 0 0 643 238" xml:space="preserve">
<g>
	<polygon fill="none" stroke="#000000" stroke-width="6.4677" stroke-miterlimit="10" points="608.743,47.188 518.195,47.188 
		518.195,200.776 636.232,200.776 636.232,74.677 	"/>
	<polyline fill="none" stroke="#000000" stroke-width="6.4677" stroke-miterlimit="10" points="636.232,74.677 607.126,74.677 
		607.126,47.188 	"/>
	<path fill="#301F15" d="M603.636,114.459c-1.586-1.519-3.403-1.602-3.907-1.591h-5.387c-1.143-2.964-3.512-3.956-4.942-4.024
		l-6.051-0.002c-1.157-3.341-3.911-4.619-5.54-4.814l-0.137-0.018h-6.186V92.403c0.033-0.634,0-2.622-1.533-4.335
		c-1.436-1.605-3.655-2.419-6.595-2.419c-2.871,0-5.094,0.796-6.61,2.366c-1.759,1.824-1.842,4.006-1.837,4.484v27.966
		c-2.974-3.009-5.767-4.538-8.301-4.538c-6.511,0-7.483,3.78-7.483,6.032c0,1.912,0.818,4.585,0.911,4.884l0.09,0.285l18.649,29.805
		v9.552h38.071l8.941-23.317v-22.656C605.79,117.863,605.065,115.827,603.636,114.459z M601.134,142.307l-7.487,19.522h-30.214
		v-6.232l-19.031-30.418c-0.243-0.841-0.617-2.373-0.617-3.219c0-0.661,0.126-0.79,0.167-0.832c0.243-0.25,1.084-0.544,2.658-0.544
		c2.334,0,6.286,4.199,8.221,7.033l0.081-0.054v7.765h4.656v-42.84l-0.002-0.084c0-0.006,0.047-0.649,0.535-1.154
		c0.595-0.618,1.722-0.943,3.258-0.943c1.48,0,2.58,0.296,3.095,0.834c0.345,0.359,0.381,0.811,0.385,0.951l-0.01,0.033v27.742
		h4.658v-11.199h5.849c0.371,0.092,1.895,0.652,1.895,3.63v7.569h4.657v-6.369h5.227c0.002,0,0.004,0.002,0.007,0.002l0.169-0.002
		l-0.164,0.003c0.48,0.143,1.218,0.974,1.218,3.307v7.569h4.656v-6.853h4.758l0.103-0.002c0.002,0,0.312,0.067,0.555,0.299
		c0.465,0.444,0.72,1.399,0.72,2.69V142.307z"/>
</g>
<g>
	<polygon fill="none" stroke="#000000" stroke-width="6.4677" stroke-miterlimit="10" points="354.073,46.987 263.525,46.987 
		263.525,200.575 381.562,200.575 381.562,74.475 	"/>
	<polyline fill="none" stroke="#000000" stroke-width="6.4677" stroke-miterlimit="10" points="381.562,74.475 352.456,74.475 
		352.456,46.987 	"/>
	<g>
		<path fill="#301F15" d="M323.081,96.451c0,2.019,1.637,3.655,3.657,3.655c2.021,0,3.657-1.637,3.657-3.655
			c0-2.021-1.636-3.658-3.657-3.658C324.718,92.793,323.081,94.431,323.081,96.451L323.081,96.451z M312.375,104.994
			c0,1.341,1.146,2.428,2.558,2.428h11.702c1.412,0,2.559-1.087,2.559-2.428c0-1.342-1.148-2.429-2.559-2.429h-11.702
			C313.52,102.565,312.375,103.652,312.375,104.994L312.375,104.994z M311.218,96.451c0,2.019,1.637,3.655,3.658,3.655
			c2.02,0,3.657-1.637,3.657-3.655c0-2.021-1.637-3.658-3.657-3.658C312.854,92.793,311.218,94.431,311.218,96.451L311.218,96.451z
			 M311.204,116.184v6.812c0,0.706,0.571,1.278,1.277,1.278h5.049c0.158-1.628,1.532-2.9,3.201-2.9c0.441,0,0.862,0.089,1.243,0.249
			l3.271-3.769c0.559-0.645,1.525,0.194,0.967,0.838l-3.174,3.657c0.494,0.508,0.823,1.18,0.894,1.925h5.126
			c0.706,0,1.278-0.572,1.278-1.278v-6.812c0-0.705-0.572-1.279-1.278-1.279h-16.577
			C311.775,114.904,311.204,115.479,311.204,116.184L311.204,116.184z M318.432,83.227c0,1.068,0.696,1.975,1.658,2.287v-0.121
			c0-0.447,0.35-0.674,0.674-0.674s0.673,0.227,0.673,0.674v0.168c1.041-0.266,1.81-1.211,1.81-2.334
			c0-1.33-1.077-2.406-2.408-2.406C319.51,80.819,318.432,81.896,318.432,83.227L318.432,83.227z M299.019,139.439l-1.173,0.249
			l-1.306-6.147c-0.289-1.363-1.63-2.234-2.993-1.944l-0.449,0.096c-1.363,0.29-2.233,1.63-1.942,2.991l1.306,6.149l-1.174,0.249
			l-2.646-2.938l-2.645-2.938l1.222-3.761l1.222-3.76l0.798-0.17c-0.237-1.194-0.229-2.347-0.098-3.415
			c0.84-6.836,7.277-10.988,14.225-11.879c0.467-0.614,1.206-1.012,2.037-1.012h9.933v-1.272h-3.999
			c-1.312,0-2.375-1.064-2.375-2.376v-4.027h-1.413c-0.706,0-1.278-0.574-1.278-1.279v-5.172c0-0.705,0.573-1.279,1.278-1.279h1.412
			v-5.072c0-1.312,1.064-2.374,2.375-2.374h8.758v-1.452c-1.714-0.348-3.004-1.861-3.004-3.68c0-2.072,1.68-3.752,3.753-3.752
			c2.074,0,3.755,1.68,3.755,3.752c0,1.871-1.368,3.42-3.157,3.707v1.425h8.786c1.312,0,2.376,1.063,2.376,2.374v5.072h1.393
			c0.707,0,1.281,0.572,1.281,1.279v5.172c0,0.707-0.574,1.279-1.281,1.279H332.6v4.027c0,1.312-1.065,2.376-2.376,2.376h-3.968
			v1.272h9.931c0.901,0,1.694,0.468,2.15,1.174c5.31-0.627,8.375-3.591,8.711-6.33c0.064-0.511,0.056-0.937-0.008-1.307l-0.68,0.145
			l-2.645-2.938l-2.646-2.939l1.219-3.76l1.223-3.759l1.175-0.249l1.306,6.146c0.289,1.362,1.631,2.232,2.994,1.941l0.448-0.094
			c1.365-0.289,2.233-1.63,1.943-2.994l-1.305-6.146l1.172-0.25l2.645,2.939l2.646,2.938l-1.22,3.76l-1.225,3.76l-0.797,0.17
			c0.236,1.193,0.229,2.345,0.098,3.415c-0.855,6.974-7.542,11.155-14.649,11.93v22.914c0,1.411-1.145,2.556-2.556,2.556h-0.493
			V170.9h1.229v6.613h1.395v2.274h-16.627v-2.274h1.463V170.9h1.587v-26.668h-7.981V170.9h1.229v6.613h1.396v2.274h-16.628v-2.274
			h1.466V170.9h1.587v-26.668h-0.411c-1.413,0-2.557-1.145-2.557-2.557V118.77c-4.479,0.93-7.052,3.613-7.358,6.109
			c-0.064,0.514-0.056,0.939,0.008,1.308l0.681-0.144l2.645,2.938l2.646,2.936l-1.22,3.764L299.019,139.439L299.019,139.439z"/>
	</g>
</g>
<g>
	<polygon fill="none" stroke="#000000" stroke-width="6.4677" stroke-miterlimit="10" points="99.236,46.987 8.687,46.987 
		8.687,200.575 126.723,200.575 126.723,74.475 	"/>
	<polyline fill="none" stroke="#000000" stroke-width="6.4677" stroke-miterlimit="10" points="126.723,74.475 97.619,74.475 
		97.619,46.987 	"/>
</g>
<rect x="18.389" y="67.199" fill="#301F15" width="60.743" height="10.51"/>
<rect x="20.814" y="96.862" fill="#301F15" width="83.272" height="5.86"/>
<rect x="20.814" y="111.235" fill="#301F15" width="83.272" height="5.859"/>
<rect x="20.814" y="125.787" fill="#301F15" width="84.431" height="5.86"/>
<polygon opacity="0.25" fill="#301F15" points="156.645,149.501 143.351,135.693 156.645,121.885 "/>
<circle opacity="0.25" fill="#301F15" cx="171.246" cy="135.576" r="4.16"/>
<circle opacity="0.25" fill="#301F15" cx="187.415" cy="135.576" r="4.16"/>
<circle opacity="0.25" fill="#301F15" cx="203.584" cy="135.576" r="4.16"/>
<circle opacity="0.25" fill="#301F15" cx="219.754" cy="135.576" r="4.16"/>
<polygon opacity="0.25" fill="#301F15" points="232.283,121.885 245.577,135.693 232.283,149.501 "/>
<polygon opacity="0.25" fill="#301F15" points="410.967,149.501 397.674,135.693 410.967,121.885 "/>
<circle opacity="0.25" fill="#301F15" cx="425.568" cy="135.576" r="4.16"/>
<circle opacity="0.25" fill="#301F15" cx="441.738" cy="135.576" r="4.16"/>
<circle opacity="0.25" fill="#301F15" cx="457.906" cy="135.576" r="4.16"/>
<circle opacity="0.25" fill="#301F15" cx="474.077" cy="135.576" r="4.16"/>
<polygon opacity="0.25" fill="#301F15" points="486.605,121.885 499.899,135.693 486.605,149.501 "/>
<rect x="20.814" y="152.83" fill="#301F15" width="83.272" height="5.859"/>
<rect x="20.814" y="167.382" fill="#301F15" width="84.431" height="5.86"/>
<rect x="30.871" y="190.271" fill="#FFCE00" width="71.819" height="27.729"/>
<text transform="matrix(1 0 0 1 39.7876 24)" fill="#301F15" font-family="'Courier'" font-size="14">Model</text>
<text transform="matrix(1 0 0 1 39.5464 207.832)" font-family="'Courier-Bold'" font-size="12.9406">Article</text>
<text transform="matrix(1 0 0 1 276.7842 24)" fill="#301F15" font-family="'Courier'" font-size="14">Controller</text>
<text transform="matrix(1 0 0 1 552.9883 24)" fill="#301F15" font-family="'Courier'" font-size="14">View</text>
<rect x="249.937" y="190.271" fill="#FFCE00" width="145.766" height="27.729"/>
<text transform="matrix(1 0 0 1 258.606 207.832)" font-family="'Courier-Bold'" font-size="12.9406">ArticleController</text>
<rect x="530.009" y="190.271" fill="#FFCE00" width="93.079" height="27.729"/>
<text transform="matrix(1 0 0 1 539.0518 207.832)" font-family="'Courier-Bold'" font-size="12.9406">PageSlider</text>
</svg>
